<svg width="256" height="24" viewBox="0 0 256 24" fill="none" xmlns="http://www.w3.org/2000/svg">
<path d="M0 23.4V21.36H0.696C1.32 21.36 1.796 21.204 2.124 20.892C2.452 20.58 2.616 20.084 2.616 19.404V4.68H4.752V20.136C4.752 21.2 4.476 22.008 3.924 22.56C3.38 23.12 2.572 23.4 1.5 23.4H0ZM2.616 2.388V0.179999H4.752V2.388H2.616Z" fill="#231F20"/>
<path d="M11.9087 18C10.9407 18 10.1287 17.824 9.47269 17.472C8.82469 17.112 8.33269 16.64 7.99669 16.056C7.66869 15.472 7.50469 14.832 7.50469 14.136C7.50469 13.456 7.63269 12.868 7.88869 12.372C8.15269 11.868 8.52069 11.452 8.99269 11.124C9.46469 10.788 10.0287 10.524 10.6847 10.332C11.3007 10.164 11.9887 10.02 12.7487 9.9C13.5167 9.772 14.2927 9.656 15.0767 9.552C15.8607 9.448 16.5927 9.348 17.2727 9.252L16.5047 9.696C16.5287 8.544 16.2967 7.692 15.8087 7.14C15.3287 6.588 14.4967 6.312 13.3127 6.312C12.5287 6.312 11.8407 6.492 11.2487 6.852C10.6647 7.204 10.2527 7.78 10.0127 8.58L7.98469 7.968C8.29669 6.832 8.90069 5.94 9.79669 5.292C10.6927 4.644 11.8727 4.32 13.3367 4.32C14.5127 4.32 15.5207 4.532 16.3607 4.956C17.2087 5.372 17.8167 6.004 18.1847 6.852C18.3687 7.252 18.4847 7.688 18.5327 8.16C18.5807 8.624 18.6047 9.112 18.6047 9.624V17.64H16.7087V14.532L17.1527 14.82C16.6647 15.868 15.9807 16.66 15.1007 17.196C14.2287 17.732 13.1647 18 11.9087 18ZM12.2327 16.212C13.0007 16.212 13.6647 16.076 14.2247 15.804C14.7927 15.524 15.2487 15.16 15.5927 14.712C15.9367 14.256 16.1607 13.76 16.2647 13.224C16.3847 12.824 16.4487 12.38 16.4567 11.892C16.4727 11.396 16.4807 11.016 16.4807 10.752L17.2247 11.076C16.5287 11.172 15.8447 11.264 15.1727 11.352C14.5007 11.44 13.8647 11.536 13.2647 11.64C12.6647 11.736 12.1247 11.852 11.6447 11.988C11.2927 12.1 10.9607 12.244 10.6487 12.42C10.3447 12.596 10.0967 12.824 9.90469 13.104C9.72069 13.376 9.62869 13.716 9.62869 14.124C9.62869 14.476 9.71669 14.812 9.89269 15.132C10.0767 15.452 10.3567 15.712 10.7327 15.912C11.1167 16.112 11.6167 16.212 12.2327 16.212Z" fill="#231F20"/>
<path d="M24.7599 17.64L20.0559 4.68H22.2159L25.8519 14.916L29.4759 4.68H31.6479L26.9439 17.64H24.7599Z" fill="#231F20"/>
<path d="M36.7759 18C35.8079 18 34.9959 17.824 34.3399 17.472C33.6919 17.112 33.1999 16.64 32.8639 16.056C32.5359 15.472 32.3719 14.832 32.3719 14.136C32.3719 13.456 32.4999 12.868 32.7559 12.372C33.0199 11.868 33.3879 11.452 33.8599 11.124C34.3319 10.788 34.8959 10.524 35.5519 10.332C36.1679 10.164 36.8559 10.02 37.6159 9.9C38.3839 9.772 39.1599 9.656 39.9439 9.552C40.7279 9.448 41.4599 9.348 42.1399 9.252L41.3719 9.696C41.3959 8.544 41.1639 7.692 40.6759 7.14C40.1959 6.588 39.3639 6.312 38.1799 6.312C37.3959 6.312 36.7079 6.492 36.1159 6.852C35.5319 7.204 35.1199 7.78 34.8799 8.58L32.8519 7.968C33.1639 6.832 33.7679 5.94 34.6639 5.292C35.5599 4.644 36.7399 4.32 38.2039 4.32C39.3799 4.32 40.3879 4.532 41.2279 4.956C42.0759 5.372 42.6839 6.004 43.0519 6.852C43.2359 7.252 43.3519 7.688 43.3999 8.16C43.4479 8.624 43.4719 9.112 43.4719 9.624V17.64H41.5759V14.532L42.0199 14.82C41.5319 15.868 40.8479 16.66 39.9679 17.196C39.0959 17.732 38.0319 18 36.7759 18ZM37.0999 16.212C37.8679 16.212 38.5319 16.076 39.0919 15.804C39.6599 15.524 40.1159 15.16 40.4599 14.712C40.8039 14.256 41.0279 13.76 41.1319 13.224C41.2519 12.824 41.3159 12.38 41.3239 11.892C41.3399 11.396 41.3479 11.016 41.3479 10.752L42.0919 11.076C41.3959 11.172 40.7119 11.264 40.0399 11.352C39.3679 11.44 38.7319 11.536 38.1319 11.64C37.5319 11.736 36.9919 11.852 36.5119 11.988C36.1599 12.1 35.8279 12.244 35.5159 12.42C35.2119 12.596 34.9639 12.824 34.7719 13.104C34.5879 13.376 34.4959 13.716 34.4959 14.124C34.4959 14.476 34.5839 14.812 34.7599 15.132C34.9439 15.452 35.2239 15.712 35.5999 15.912C35.9839 16.112 36.4839 16.212 37.0999 16.212Z" fill="#231F20"/>
<path d="M44.6719 23.4V21.36H45.3679C45.9919 21.36 46.4679 21.204 46.7959 20.892C47.1239 20.58 47.2879 20.084 47.2879 19.404V4.68H49.4239V20.136C49.4239 21.2 49.1479 22.008 48.5959 22.56C48.0519 23.12 47.2439 23.4 46.1719 23.4H44.6719ZM47.2879 2.388V0.179999H49.4239V2.388H47.2879Z" fill="#231F20"/>
<path d="M58.4166 18C57.1286 18 56.0166 17.708 55.0806 17.124C54.1526 16.54 53.4366 15.732 52.9326 14.7C52.4286 13.668 52.1766 12.484 52.1766 11.148C52.1766 9.788 52.4326 8.596 52.9446 7.572C53.4566 6.548 54.1806 5.752 55.1166 5.184C56.0526 4.608 57.1526 4.32 58.4166 4.32C59.7126 4.32 60.8286 4.612 61.7646 5.196C62.7006 5.772 63.4166 6.576 63.9126 7.608C64.4166 8.632 64.6686 9.812 64.6686 11.148C64.6686 12.5 64.4166 13.692 63.9126 14.724C63.4086 15.748 62.6886 16.552 61.7526 17.136C60.8166 17.712 59.7046 18 58.4166 18ZM58.4166 15.972C59.7606 15.972 60.7606 15.524 61.4166 14.628C62.0726 13.732 62.4006 12.572 62.4006 11.148C62.4006 9.684 62.0686 8.52 61.4046 7.656C60.7406 6.784 59.7446 6.348 58.4166 6.348C57.5126 6.348 56.7686 6.552 56.1846 6.96C55.6006 7.368 55.1646 7.932 54.8766 8.652C54.5886 9.372 54.4446 10.204 54.4446 11.148C54.4446 12.604 54.7806 13.772 55.4526 14.652C56.1246 15.532 57.1126 15.972 58.4166 15.972Z" fill="#231F20"/>
<path d="M76.5386 17.64V11.148C76.5386 10.532 76.4826 9.94 76.3706 9.372C76.2666 8.804 76.0786 8.296 75.8066 7.848C75.5426 7.392 75.1826 7.032 74.7266 6.768C74.2786 6.504 73.7106 6.372 73.0226 6.372C72.4866 6.372 71.9986 6.464 71.5586 6.648C71.1266 6.824 70.7546 7.096 70.4426 7.464C70.1306 7.832 69.8866 8.296 69.7106 8.856C69.5426 9.408 69.4586 10.06 69.4586 10.812L68.0546 10.38C68.0546 9.124 68.2786 8.048 68.7266 7.152C69.1826 6.248 69.8186 5.556 70.6346 5.076C71.4586 4.588 72.4266 4.344 73.5386 4.344C74.3786 4.344 75.0946 4.476 75.6866 4.74C76.2786 5.004 76.7706 5.356 77.1626 5.796C77.5546 6.228 77.8626 6.716 78.0866 7.26C78.3106 7.796 78.4666 8.344 78.5546 8.904C78.6506 9.456 78.6986 9.98 78.6986 10.476V17.64H76.5386ZM67.2986 17.64V4.68H69.2186V8.148H69.4586V17.64H67.2986Z" fill="#231F20"/>
<path d="M91.0464 17.64V11.148C91.0464 10.532 90.9904 9.94 90.8784 9.372C90.7744 8.804 90.5864 8.296 90.3144 7.848C90.0504 7.392 89.6904 7.032 89.2344 6.768C88.7864 6.504 88.2184 6.372 87.5304 6.372C86.9944 6.372 86.5064 6.464 86.0664 6.648C85.6344 6.824 85.2624 7.096 84.9504 7.464C84.6384 7.832 84.3944 8.296 84.2184 8.856C84.0504 9.408 83.9664 10.06 83.9664 10.812L82.5624 10.38C82.5624 9.124 82.7864 8.048 83.2344 7.152C83.6904 6.248 84.3264 5.556 85.1424 5.076C85.9664 4.588 86.9344 4.344 88.0464 4.344C88.8864 4.344 89.6024 4.476 90.1944 4.74C90.7864 5.004 91.2784 5.356 91.6704 5.796C92.0624 6.228 92.3704 6.716 92.5944 7.26C92.8184 7.796 92.9744 8.344 93.0624 8.904C93.1584 9.456 93.2064 9.98 93.2064 10.476V17.64H91.0464ZM81.8064 17.64V4.68H83.7264V8.148H83.9664V17.64H81.8064Z" fill="#231F20"/>
<path d="M101.729 18C100.441 18 99.3291 17.708 98.3931 17.124C97.4651 16.54 96.7491 15.732 96.2451 14.7C95.7411 13.668 95.4891 12.484 95.4891 11.148C95.4891 9.788 95.7451 8.596 96.2571 7.572C96.7691 6.548 97.4931 5.752 98.4291 5.184C99.3651 4.608 100.465 4.32 101.729 4.32C103.025 4.32 104.141 4.612 105.077 5.196C106.013 5.772 106.729 6.576 107.225 7.608C107.729 8.632 107.981 9.812 107.981 11.148C107.981 12.5 107.729 13.692 107.225 14.724C106.721 15.748 106.001 16.552 105.065 17.136C104.129 17.712 103.017 18 101.729 18ZM101.729 15.972C103.073 15.972 104.073 15.524 104.729 14.628C105.385 13.732 105.713 12.572 105.713 11.148C105.713 9.684 105.381 8.52 104.717 7.656C104.053 6.784 103.057 6.348 101.729 6.348C100.825 6.348 100.081 6.552 99.4971 6.96C98.9131 7.368 98.4771 7.932 98.1891 8.652C97.9011 9.372 97.7571 10.204 97.7571 11.148C97.7571 12.604 98.0931 13.772 98.7651 14.652C99.4371 15.532 100.425 15.972 101.729 15.972Z" fill="#231F20"/>
<path d="M110.623 17.64V4.68H112.531V7.812L112.219 7.404C112.371 7.004 112.567 6.636 112.807 6.3C113.055 5.964 113.331 5.688 113.635 5.472C113.971 5.2 114.351 4.992 114.775 4.848C115.199 4.704 115.631 4.62 116.071 4.596C116.511 4.564 116.923 4.592 117.307 4.68V6.684C116.859 6.564 116.367 6.532 115.831 6.588C115.295 6.644 114.799 6.84 114.343 7.176C113.927 7.472 113.603 7.832 113.371 8.256C113.147 8.68 112.991 9.14 112.903 9.636C112.815 10.124 112.771 10.624 112.771 11.136V17.64H110.623Z" fill="#231F20"/>
<path d="M128.792 20.16C127.504 20.16 126.312 19.94 125.216 19.5C124.128 19.06 123.18 18.444 122.372 17.652C121.564 16.86 120.936 15.928 120.488 14.856C120.04 13.784 119.816 12.62 119.816 11.364C119.816 9.94 120.04 8.664 120.488 7.536C120.944 6.4 121.576 5.432 122.384 4.632C123.2 3.832 124.152 3.22 125.24 2.796C126.336 2.372 127.524 2.16 128.804 2.16C130.324 2.16 131.652 2.4 132.788 2.88C133.924 3.352 134.864 4 135.608 4.824C136.36 5.64 136.912 6.564 137.264 7.596C137.624 8.628 137.78 9.704 137.732 10.824C137.676 12.352 137.336 13.516 136.712 14.316C136.088 15.116 135.172 15.516 133.964 15.516C133.26 15.516 132.628 15.352 132.068 15.024C131.508 14.696 131.128 14.224 130.928 13.608L131.564 13.656C131.26 14.248 130.828 14.672 130.268 14.928C129.708 15.176 129.128 15.3 128.528 15.3C127.76 15.3 127.084 15.136 126.5 14.808C125.924 14.472 125.468 14.008 125.132 13.416C124.804 12.816 124.64 12.124 124.64 11.34C124.64 10.524 124.812 9.82 125.156 9.228C125.5 8.636 125.968 8.18 126.56 7.86C127.152 7.532 127.82 7.368 128.564 7.368C129.084 7.368 129.624 7.476 130.184 7.692C130.744 7.908 131.176 8.236 131.48 8.676L131 9.252V7.704H132.44L132.416 11.808C132.416 12.408 132.544 12.88 132.8 13.224C133.064 13.568 133.472 13.74 134.024 13.74C134.448 13.74 134.788 13.62 135.044 13.38C135.308 13.14 135.504 12.812 135.632 12.396C135.76 11.972 135.832 11.48 135.848 10.92C135.888 9.688 135.72 8.632 135.344 7.752C134.968 6.872 134.444 6.148 133.772 5.58C133.108 5.012 132.356 4.596 131.516 4.332C130.684 4.06 129.82 3.924 128.924 3.924C127.764 3.924 126.732 4.112 125.828 4.488C124.932 4.864 124.172 5.392 123.548 6.072C122.932 6.744 122.464 7.528 122.144 8.424C121.832 9.32 121.684 10.288 121.7 11.328C121.724 12.376 121.916 13.336 122.276 14.208C122.636 15.072 123.136 15.816 123.776 16.44C124.424 17.064 125.18 17.544 126.044 17.88C126.916 18.224 127.864 18.396 128.888 18.396C129.512 18.396 130.132 18.32 130.748 18.168C131.372 18.016 131.932 17.808 132.428 17.544L133.052 19.152C132.396 19.488 131.708 19.74 130.988 19.908C130.268 20.076 129.536 20.16 128.792 20.16ZM128.648 13.512C129.248 13.512 129.74 13.34 130.124 12.996C130.516 12.652 130.712 12.096 130.712 11.328C130.712 10.6 130.532 10.052 130.172 9.684C129.812 9.316 129.32 9.132 128.696 9.132C127.976 9.132 127.428 9.328 127.052 9.72C126.684 10.104 126.5 10.64 126.5 11.328C126.5 12.024 126.692 12.564 127.076 12.948C127.46 13.324 127.984 13.512 128.648 13.512Z" fill="#231F20"/>
<path d="M146.594 23.76C145.914 23.76 145.25 23.656 144.602 23.448C143.954 23.24 143.358 22.924 142.814 22.5C142.278 22.084 141.83 21.556 141.47 20.916L143.426 19.884C143.746 20.516 144.198 20.976 144.782 21.264C145.374 21.552 145.982 21.696 146.606 21.696C147.43 21.696 148.114 21.544 148.658 21.24C149.202 20.944 149.602 20.5 149.858 19.908C150.022 19.5407 150.133 19.1179 150.192 18.6396C150.228 18.3472 150.245 18.034 150.242 17.7V14.16H150.494V4.68H152.39V17.724C152.39 18.076 152.378 18.416 152.354 18.744C152.338 19.072 152.298 19.396 152.234 19.716C152.066 20.636 151.734 21.392 151.238 21.984C150.742 22.584 150.102 23.028 149.318 23.316C148.534 23.612 147.626 23.76 146.594 23.76ZM146.438 18C145.23 18 144.194 17.7 143.33 17.1C142.466 16.492 141.798 15.672 141.326 14.64C140.862 13.608 140.63 12.444 140.63 11.148C140.63 9.852 140.862 8.688 141.326 7.656C141.798 6.624 142.466 5.812 143.33 5.22C144.194 4.62 145.226 4.32 146.426 4.32C147.65 4.32 148.678 4.616 149.51 5.208C150.342 5.8 150.97 6.612 151.394 7.644C151.826 8.676 152.042 9.844 152.042 11.148C152.042 12.436 151.826 13.6 151.394 14.64C150.97 15.672 150.342 16.492 149.51 17.1C148.678 17.7 147.654 18 146.438 18ZM146.702 16.044C147.574 16.044 148.29 15.836 148.85 15.42C149.41 14.996 149.822 14.416 150.086 13.68C150.358 12.936 150.494 12.092 150.494 11.148C150.494 10.188 150.358 9.344 150.086 8.616C149.822 7.88 149.414 7.308 148.862 6.9C148.31 6.484 147.61 6.276 146.762 6.276C145.882 6.276 145.154 6.492 144.578 6.924C144.01 7.356 143.586 7.94 143.306 8.676C143.034 9.412 142.898 10.236 142.898 11.148C142.898 12.068 143.038 12.9 143.318 13.644C143.598 14.38 144.018 14.964 144.578 15.396C145.146 15.828 145.854 16.044 146.702 16.044Z" fill="#231F20"/>
<path d="M171.232 17.64L171.244 9.348C171.244 8.38 170.984 7.624 170.464 7.08C169.952 6.528 169.284 6.252 168.46 6.252C167.98 6.252 167.524 6.364 167.092 6.588C166.66 6.804 166.308 7.148 166.036 7.62C165.764 8.084 165.628 8.68 165.628 9.408L164.5 8.952C164.484 8.032 164.672 7.228 165.064 6.54C165.464 5.844 166.008 5.304 166.696 4.92C167.384 4.536 168.16 4.344 169.024 4.344C170.376 4.344 171.44 4.756 172.216 5.58C172.992 6.396 173.38 7.496 173.38 8.88L173.368 17.64H171.232ZM155.728 17.64V4.68H157.636V8.148H157.876V17.64H155.728ZM163.492 17.64L163.504 9.432C163.504 8.44 163.248 7.664 162.736 7.104C162.224 6.536 161.544 6.252 160.696 6.252C159.856 6.252 159.176 6.54 158.656 7.116C158.136 7.692 157.876 8.456 157.876 9.408L156.748 8.736C156.748 7.896 156.948 7.144 157.348 6.48C157.748 5.816 158.292 5.296 158.98 4.92C159.668 4.536 160.448 4.344 161.32 4.344C162.192 4.344 162.952 4.528 163.6 4.896C164.248 5.264 164.748 5.792 165.1 6.48C165.452 7.16 165.628 7.972 165.628 8.916L165.616 17.64H163.492Z" fill="#231F20"/>
<path d="M180.19 18C179.222 18 178.41 17.824 177.754 17.472C177.106 17.112 176.614 16.64 176.278 16.056C175.95 15.472 175.786 14.832 175.786 14.136C175.786 13.456 175.914 12.868 176.17 12.372C176.434 11.868 176.802 11.452 177.274 11.124C177.746 10.788 178.31 10.524 178.966 10.332C179.582 10.164 180.27 10.02 181.03 9.9C181.798 9.772 182.574 9.656 183.358 9.552C184.142 9.448 184.874 9.348 185.554 9.252L184.786 9.696C184.81 8.544 184.578 7.692 184.09 7.14C183.61 6.588 182.778 6.312 181.594 6.312C180.81 6.312 180.122 6.492 179.53 6.852C178.946 7.204 178.534 7.78 178.294 8.58L176.266 7.968C176.578 6.832 177.182 5.94 178.078 5.292C178.974 4.644 180.154 4.32 181.618 4.32C182.794 4.32 183.802 4.532 184.642 4.956C185.49 5.372 186.098 6.004 186.466 6.852C186.65 7.252 186.766 7.688 186.814 8.16C186.862 8.624 186.886 9.112 186.886 9.624V17.64H184.99V14.532L185.434 14.82C184.946 15.868 184.262 16.66 183.382 17.196C182.51 17.732 181.446 18 180.19 18ZM180.514 16.212C181.282 16.212 181.946 16.076 182.506 15.804C183.074 15.524 183.53 15.16 183.874 14.712C184.218 14.256 184.442 13.76 184.546 13.224C184.666 12.824 184.73 12.38 184.738 11.892C184.754 11.396 184.762 11.016 184.762 10.752L185.506 11.076C184.81 11.172 184.126 11.264 183.454 11.352C182.782 11.44 182.146 11.536 181.546 11.64C180.946 11.736 180.406 11.852 179.926 11.988C179.574 12.1 179.242 12.244 178.93 12.42C178.626 12.596 178.378 12.824 178.186 13.104C178.002 13.376 177.91 13.716 177.91 14.124C177.91 14.476 177.998 14.812 178.174 15.132C178.358 15.452 178.638 15.712 179.014 15.912C179.398 16.112 179.898 16.212 180.514 16.212Z" fill="#231F20"/>
<path d="M190.246 2.388V0.179999H192.382V2.388H190.246ZM190.246 17.64V4.68H192.382V17.64H190.246Z" fill="#231F20"/>
<path d="M196.223 17.64V0H198.359V17.64H196.223Z" fill="#231F20"/>
<path d="M202.343 17.64V15.288H204.695V17.64H202.343Z" fill="#231F20"/>
<path d="M213.888 18C212.576 18 211.46 17.708 210.54 17.124C209.628 16.532 208.932 15.72 208.452 14.688C207.972 13.656 207.724 12.48 207.708 11.16C207.724 9.808 207.976 8.62 208.464 7.596C208.96 6.564 209.668 5.76 210.588 5.184C211.508 4.608 212.616 4.32 213.912 4.32C215.28 4.32 216.456 4.656 217.44 5.328C218.432 6 219.096 6.92 219.432 8.088L217.32 8.724C217.048 7.972 216.604 7.388 215.988 6.972C215.38 6.556 214.68 6.348 213.888 6.348C213 6.348 212.268 6.556 211.692 6.972C211.116 7.38 210.688 7.948 210.408 8.676C210.128 9.396 209.984 10.224 209.976 11.16C209.992 12.6 210.324 13.764 210.972 14.652C211.628 15.532 212.6 15.972 213.888 15.972C214.736 15.972 215.44 15.78 216 15.396C216.56 15.004 216.984 14.44 217.272 13.704L219.432 14.268C218.984 15.476 218.284 16.4 217.332 17.04C216.38 17.68 215.232 18 213.888 18Z" fill="#231F20"/>
<path d="M227.049 18C225.761 18 224.649 17.708 223.713 17.124C222.785 16.54 222.069 15.732 221.565 14.7C221.061 13.668 220.809 12.484 220.809 11.148C220.809 9.788 221.065 8.596 221.577 7.572C222.089 6.548 222.813 5.752 223.749 5.184C224.685 4.608 225.785 4.32 227.049 4.32C228.345 4.32 229.461 4.612 230.397 5.196C231.333 5.772 232.049 6.576 232.545 7.608C233.049 8.632 233.301 9.812 233.301 11.148C233.301 12.5 233.049 13.692 232.545 14.724C232.041 15.748 231.321 16.552 230.385 17.136C229.449 17.712 228.337 18 227.049 18ZM227.049 15.972C228.393 15.972 229.393 15.524 230.049 14.628C230.705 13.732 231.033 12.572 231.033 11.148C231.033 9.684 230.701 8.52 230.037 7.656C229.373 6.784 228.377 6.348 227.049 6.348C226.145 6.348 225.401 6.552 224.817 6.96C224.233 7.368 223.797 7.932 223.509 8.652C223.221 9.372 223.077 10.204 223.077 11.148C223.077 12.604 223.413 13.772 224.085 14.652C224.757 15.532 225.745 15.972 227.049 15.972Z" fill="#231F20"/>
<path d="M251.435 17.64L251.447 9.348C251.447 8.38 251.187 7.624 250.667 7.08C250.155 6.528 249.487 6.252 248.663 6.252C248.183 6.252 247.727 6.364 247.295 6.588C246.863 6.804 246.511 7.148 246.239 7.62C245.967 8.084 245.831 8.68 245.831 9.408L244.703 8.952C244.687 8.032 244.875 7.228 245.267 6.54C245.667 5.844 246.211 5.304 246.899 4.92C247.587 4.536 248.363 4.344 249.227 4.344C250.579 4.344 251.643 4.756 252.419 5.58C253.195 6.396 253.583 7.496 253.583 8.88L253.571 17.64H251.435ZM235.931 17.64V4.68H237.839V8.148H238.079V17.64H235.931ZM243.695 17.64L243.707 9.432C243.707 8.44 243.451 7.664 242.939 7.104C242.427 6.536 241.747 6.252 240.899 6.252C240.059 6.252 239.379 6.54 238.859 7.116C238.339 7.692 238.079 8.456 238.079 9.408L236.951 8.736C236.951 7.896 237.151 7.144 237.551 6.48C237.951 5.816 238.495 5.296 239.183 4.92C239.871 4.536 240.651 4.344 241.523 4.344C242.395 4.344 243.155 4.528 243.803 4.896C244.451 5.264 244.951 5.792 245.303 6.48C245.655 7.16 245.831 7.972 245.831 8.916L245.819 17.64H243.695Z" fill="#231F20"/>
<path d="M0.24 19.14H255.023V19.74H0.24V19.14Z" fill="#231F20"/>
</svg>
