<svg width="92" height="23" viewBox="0 0 92 23" fill="none" xmlns="http://www.w3.org/2000/svg">
<path d="M16.0671 0V15.7161C16.0671 16.7004 15.8754 17.6301 15.492 18.505C15.1312 19.3799 14.59 20.1674 13.8684 20.8673C13.1468 21.5673 12.335 22.1032 11.433 22.475C10.531 22.825 9.57258 23 8.55782 23C8.12937 23 7.62198 22.9563 7.03568 22.8688C6.47192 22.7813 5.85179 22.6391 5.17528 22.4422C4.52133 22.2454 3.83354 21.9938 3.11193 21.6876C2.41288 21.3595 1.71382 20.9658 1.01476 20.5064L0 19.8174L1.89422 14.9615L3.34871 15.8146C4.76938 16.6457 5.89689 17.1816 6.73125 17.4223C7.56561 17.641 8.17447 17.7504 8.55782 17.7504C9.09903 17.7504 9.59513 17.5535 10.0461 17.1598C10.452 16.766 10.655 16.2848 10.655 15.7161V0H16.0671Z" fill="#CF8151"/>
<path d="M43.5084 23H37.7581L36.8786 20.6705C36.8335 20.5174 36.7321 20.4408 36.5742 20.4408H26.359C26.2236 20.4408 26.1222 20.5174 26.0545 20.6705L25.2089 23H19.4586L27.9826 0H34.9844L43.5084 23ZM28.2532 14.7646C28.2081 14.874 28.2193 14.9724 28.287 15.0599C28.3547 15.1474 28.4449 15.1912 28.5576 15.1912H34.4094C34.7025 15.1912 34.804 15.049 34.7138 14.7646L31.8048 6.89016C31.7372 6.73704 31.6244 6.66049 31.4666 6.66049C31.3087 6.66049 31.2073 6.73704 31.1622 6.89016L28.2532 14.7646Z" fill="#CF8151"/>
<path d="M62.582 0L53.9903 23H49.2548L40.6631 0H46.4473L51.3519 13.2225C51.397 13.3319 51.4872 13.3866 51.6225 13.3866C51.7578 13.3866 51.848 13.3319 51.8931 13.2225L56.7978 0H62.582Z" fill="#CF8151"/>
<path d="M83.4118 23H77.6615L76.782 20.6705C76.7369 20.5174 76.6354 20.4408 76.4776 20.4408H66.2623C66.127 20.4408 66.0255 20.5174 65.9579 20.6705L65.1123 23H59.3619L67.8859 0H74.8878L83.4118 23ZM68.1565 14.7646C68.1114 14.874 68.1227 14.9724 68.1904 15.0599C68.258 15.1474 68.3482 15.1912 68.461 15.1912H74.3128C74.6059 15.1912 74.7074 15.049 74.6172 14.7646L71.7082 6.89016C71.6406 6.73704 71.5278 6.66049 71.37 6.66049C71.2121 6.66049 71.1106 6.73704 71.0655 6.89016L68.1565 14.7646Z" fill="#CF8151"/>
<path d="M86.182 22.9672V17.7175H92V22.9672H86.182Z" fill="#CF8151"/>
</svg>
