<svg width="203" height="70" viewBox="0 0 203 70" fill="none" xmlns="http://www.w3.org/2000/svg">
<g id="Group 35">
<g id="Java.">
<path d="M22.4939 0V22.0026C22.4939 23.3806 22.2255 24.6821 21.6888 25.907C21.1837 27.1319 20.426 28.2343 19.4158 29.2143C18.4055 30.1942 17.269 30.9445 16.0062 31.465C14.7434 31.955 13.4016 32.2 11.9809 32.2C11.3811 32.2 10.6708 32.1388 9.84995 32.0163C9.06069 31.8938 8.19251 31.6947 7.2454 31.4191C6.32986 31.1435 5.36696 30.7913 4.35671 30.3626C3.37803 29.9033 2.39935 29.3521 1.42067 28.709L0 27.7444L2.65191 20.9461L4.6882 22.1404C6.67713 23.304 8.25565 24.0543 9.42375 24.3912C10.5919 24.6974 11.4443 24.8505 11.9809 24.8505C12.7386 24.8505 13.4332 24.5749 14.0646 24.0237C14.6329 23.4725 14.917 22.7988 14.917 22.0026V0H22.4939Z" fill="#CF8151"/>
<path d="M60.9118 32.2H52.8613L51.6301 28.9387C51.567 28.7243 51.4249 28.6171 51.2039 28.6171H36.9025C36.7131 28.6171 36.571 28.7243 36.4763 28.9387L35.2924 32.2H27.242L39.1756 0H48.9782L60.9118 32.2ZM39.5544 20.6705C39.4913 20.8236 39.5071 20.9614 39.6018 21.0839C39.6965 21.2064 39.8228 21.2676 39.9806 21.2676H48.1731C48.5836 21.2676 48.7256 21.0686 48.5993 20.6705L44.5268 9.64622C44.4321 9.43186 44.2742 9.32468 44.0532 9.32468C43.8322 9.32468 43.6902 9.43186 43.627 9.64622L39.5544 20.6705Z" fill="#CF8151"/>
<path d="M87.6148 0L75.5864 32.2H68.9567L56.9284 0H65.0262L71.8927 18.5116C71.9559 18.6647 72.0821 18.7412 72.2716 18.7412C72.461 18.7412 72.5873 18.6647 72.6504 18.5116L79.517 0H87.6148Z" fill="#CF8151"/>
<path d="M116.777 32.2H108.726L107.495 28.9387C107.432 28.7243 107.29 28.6171 107.069 28.6171H92.7672C92.5778 28.6171 92.4358 28.7243 92.341 28.9387L91.1572 32.2H83.1067L95.0403 0H104.843L116.777 32.2ZM95.4192 20.6705C95.356 20.8236 95.3718 20.9614 95.4665 21.0839C95.5612 21.2064 95.6875 21.2676 95.8454 21.2676H104.038C104.448 21.2676 104.59 21.0686 104.464 20.6705L100.391 9.64622C100.297 9.43186 100.139 9.32468 99.9179 9.32468C99.6969 9.32468 99.5549 9.43186 99.4917 9.64622L95.4192 20.6705Z" fill="#CF8151"/>
<path id="javaDot" d="M120.655 32.1541V24.8046H128.8V32.1541H120.655Z" fill="#CF8151" style="	transform: translate(-20px, -30px);"/>
</g>
<g id="Jonnor.">
<path d="M22.374 37.2866V59.6399C22.374 61.0399 22.1071 62.3621 21.5732 63.6066C21.0708 64.851 20.3171 65.971 19.3123 66.9666C18.3074 67.9621 17.1769 68.7243 15.9208 69.2532C14.6648 69.751 13.3302 69.9999 11.9171 69.9999C11.3204 69.9999 10.6139 69.9377 9.79744 69.8132C9.01239 69.6888 8.14884 69.4866 7.20677 69.2066C6.29611 68.9266 5.33835 68.5688 4.33349 68.1332C3.36002 67.6666 2.38656 67.1066 1.41309 66.4532L0 65.4732L2.63777 58.5666L4.66321 59.7799C6.64154 60.9621 8.21164 61.7243 9.37352 62.0666C10.5354 62.3777 11.3832 62.5332 11.9171 62.5332C12.6707 62.5332 13.3616 62.2532 13.9896 61.6932C14.5549 61.1332 14.8375 60.4488 14.8375 59.6399V37.2866H22.374Z" fill="#231F20"/>
<path d="M54.1811 42.1399C55.0917 43.7577 55.6256 45.4999 55.7826 47.3666C55.9396 49.2021 56.0181 51.1466 56.0181 53.1999V56.3732H55.971C55.9082 57.7732 55.7512 59.1266 55.5 60.4332C55.2801 61.7399 54.8405 62.9843 54.1811 64.1666C53.0192 66.1888 51.3549 67.651 49.1881 68.5532C47.2412 69.4555 44.6663 69.9066 41.4632 69.9066C38.323 69.9066 35.7481 69.4555 33.7383 68.5532C31.603 67.6199 29.9544 66.1577 28.7925 64.1666C27.8818 62.5488 27.348 60.8066 27.191 58.9399C27.034 57.0732 26.9555 55.1288 26.9555 53.1066V49.9332H27.0026C27.0654 48.5332 27.2067 47.1799 27.4265 45.8732C27.6463 44.5666 28.1017 43.3221 28.7925 42.1399C29.9544 40.1488 31.603 38.6866 33.7383 37.7532C35.7481 36.851 38.323 36.3999 41.4632 36.3999C44.6663 36.3999 47.2412 36.851 49.1881 37.7532C51.3549 38.6555 53.0192 40.1177 54.1811 42.1399ZM48.3874 53.1999C48.3874 51.7066 48.356 50.3066 48.2932 48.9999C48.2304 47.6621 47.9792 46.6199 47.5395 45.8732C47.4767 45.7488 47.3511 45.5932 47.1627 45.4066C47.0057 45.1888 46.7074 44.9866 46.2678 44.7999C45.8281 44.5821 45.2315 44.3955 44.4778 44.2399C43.7242 44.0843 42.7193 44.0066 41.4632 44.0066C40.2386 44.0066 39.2337 44.0843 38.4486 44.2399C37.695 44.3955 37.0984 44.5821 36.6587 44.7999C36.2505 44.9866 35.9522 45.1888 35.7638 45.4066C35.6068 45.5932 35.4968 45.7488 35.434 45.8732C34.9944 46.6199 34.7432 47.631 34.6804 48.9066C34.6176 50.1821 34.5862 51.551 34.5862 53.0132V53.1066C34.5862 54.5999 34.6176 56.0155 34.6804 57.3532C34.7432 58.6599 34.9944 59.6866 35.434 60.4332C35.4968 60.5266 35.6068 60.6821 35.7638 60.8999C35.9522 61.1177 36.2505 61.3355 36.6587 61.5532C37.0984 61.7399 37.695 61.911 38.4486 62.0666C39.2337 62.2221 40.2386 62.2999 41.4632 62.2999C42.7193 62.2999 43.7242 62.2221 44.4778 62.0666C45.2315 61.911 45.8281 61.7399 46.2678 61.5532C46.7074 61.3355 47.0057 61.1177 47.1627 60.8999C47.3511 60.6821 47.4767 60.5266 47.5395 60.4332C47.9792 59.6866 48.2304 58.6755 48.2932 57.3999C48.356 56.1243 48.3874 54.7399 48.3874 53.2466V53.1999Z" fill="#231F20"/>
<path d="M87.4141 37.2866V69.9999H80.7255L68.9026 51.8932C68.8712 51.831 68.8398 51.8155 68.8084 51.8466C68.777 51.8466 68.7613 51.8777 68.7613 51.9399V69.9999H61.2248V37.2866H68.0548L79.7363 54.4132C79.7677 54.4755 79.7992 54.5066 79.8306 54.5066C79.862 54.4755 79.8777 54.4288 79.8777 54.3666V37.2866H87.4141Z" fill="#231F20"/>
<path d="M118.878 37.2866V69.9999H112.189L100.366 51.8932C100.335 51.831 100.303 51.8155 100.272 51.8466C100.24 51.8466 100.225 51.8777 100.225 51.9399V69.9999H92.6882V37.2866H99.5182L111.2 54.4132C111.231 54.4755 111.263 54.5066 111.294 54.5066C111.325 54.4755 111.341 54.4288 111.341 54.3666V37.2866H118.878Z" fill="#231F20"/>
<path d="M151.377 42.1399C152.288 43.7577 152.822 45.4999 152.979 47.3666C153.136 49.2021 153.214 51.1466 153.214 53.1999V56.3732H153.167C153.104 57.7732 152.947 59.1266 152.696 60.4332C152.476 61.7399 152.037 62.9843 151.377 64.1666C150.215 66.1888 148.551 67.651 146.384 68.5532C144.437 69.4555 141.862 69.9066 138.659 69.9066C135.519 69.9066 132.944 69.4555 130.934 68.5532C128.799 67.6199 127.151 66.1577 125.989 64.1666C125.078 62.5488 124.544 60.8066 124.387 58.9399C124.23 57.0732 124.152 55.1288 124.152 53.1066V49.9332H124.199C124.262 48.5332 124.403 47.1799 124.623 45.8732C124.842 44.5666 125.298 43.3221 125.989 42.1399C127.151 40.1488 128.799 38.6866 130.934 37.7532C132.944 36.851 135.519 36.3999 138.659 36.3999C141.862 36.3999 144.437 36.851 146.384 37.7532C148.551 38.6555 150.215 40.1177 151.377 42.1399ZM145.584 53.1999C145.584 51.7066 145.552 50.3066 145.489 48.9999C145.427 47.6621 145.175 46.6199 144.736 45.8732C144.673 45.7488 144.547 45.5932 144.359 45.4066C144.202 45.1888 143.904 44.9866 143.464 44.7999C143.024 44.5821 142.428 44.3955 141.674 44.2399C140.92 44.0843 139.915 44.0066 138.659 44.0066C137.435 44.0066 136.43 44.0843 135.645 44.2399C134.891 44.3955 134.294 44.5821 133.855 44.7999C133.447 44.9866 133.148 45.1888 132.96 45.4066C132.803 45.5932 132.693 45.7488 132.63 45.8732C132.191 46.6199 131.939 47.631 131.877 48.9066C131.814 50.1821 131.782 51.551 131.782 53.0132V53.1066C131.782 54.5999 131.814 56.0155 131.877 57.3532C131.939 58.6599 132.191 59.6866 132.63 60.4332C132.693 60.5266 132.803 60.6821 132.96 60.8999C133.148 61.1177 133.447 61.3355 133.855 61.5532C134.294 61.7399 134.891 61.911 135.645 62.0666C136.43 62.2221 137.435 62.2999 138.659 62.2999C139.915 62.2999 140.92 62.2221 141.674 62.0666C142.428 61.911 143.024 61.7399 143.464 61.5532C143.904 61.3355 144.202 61.1177 144.359 60.8999C144.547 60.6821 144.673 60.5266 144.736 60.4332C145.175 59.6866 145.427 58.6755 145.489 57.3999C145.552 56.1243 145.584 54.7399 145.584 53.2466V53.1999Z" fill="#231F20"/>
<path d="M175.708 37.2399C177.686 37.2399 179.539 37.6132 181.266 38.3599C183.024 39.1066 184.563 40.1332 185.882 41.4399C187.201 42.7155 188.237 44.2243 188.991 45.9666C189.745 47.7088 190.121 49.5599 190.121 51.5199C190.121 53.1688 189.839 54.771 189.273 56.3266C188.708 57.851 187.892 59.251 186.824 60.5266C185.223 62.4866 183.213 63.9177 180.795 64.8199L182.773 69.9999H174.672L173.164 66.0332C173.101 65.8466 172.976 65.7532 172.787 65.7532H166.334C166.083 65.7532 165.957 65.8932 165.957 66.1732V69.9999H158.421V37.2399H175.708ZM175.661 58.2866C176.603 58.2866 177.482 58.1155 178.298 57.7732C179.146 57.3999 179.884 56.9177 180.512 56.3266C181.14 55.7043 181.627 54.9888 181.973 54.1799C182.349 53.3399 182.538 52.4532 182.538 51.5199C182.538 50.5866 182.365 49.7155 182.02 48.9066C181.674 48.0666 181.187 47.3355 180.559 46.7132C179.931 46.091 179.193 45.6088 178.346 45.2666C177.529 44.8932 176.65 44.7066 175.708 44.7066H166.334C166.083 44.7066 165.957 44.8466 165.957 45.1266V57.9132C165.957 58.1621 166.083 58.2866 166.334 58.2866H175.661Z" fill="#231F20"/>
<path d="M194.898 69.9532V62.4866H203V69.9532H194.898Z" fill="#231F20"/>
</g>
</g>
</svg>
