<svg width="145" height="24" viewBox="0 0 145 24" fill="none" xmlns="http://www.w3.org/2000/svg">
<path d="M15.9814 0.633333V16.6C15.9814 17.6 15.7908 18.5444 15.4094 19.4333C15.0506 20.3222 14.5122 21.1222 13.7945 21.8333C13.0767 22.5444 12.2692 23.0889 11.372 23.4667C10.4748 23.8222 9.52155 24 8.5122 24C8.08603 24 7.58136 23.9556 6.99817 23.8667C6.43742 23.7778 5.8206 23.6333 5.1477 23.4333C4.49722 23.2333 3.81311 22.9778 3.09535 22.6667C2.40002 22.3333 1.70468 21.9333 1.00935 21.4667L0 20.7667L1.88412 15.8333L3.33086 16.7C4.74396 17.5444 5.86546 18.0889 6.69537 18.3333C7.52528 18.5556 8.13089 18.6667 8.5122 18.6667C9.05052 18.6667 9.54399 18.4667 9.99259 18.0667C10.3963 17.6667 10.5982 17.1778 10.5982 16.6V0.633333H15.9814Z" fill="#231F20"/>
<path d="M38.7008 4.1C39.3512 5.25556 39.7326 6.5 39.8447 7.83333C39.9568 9.14444 40.0129 10.5333 40.0129 12V14.2667H39.9793C39.9344 15.2667 39.8223 16.2333 39.6428 17.1667C39.4858 18.1 39.1718 18.9889 38.7008 19.8333C37.8709 21.2778 36.6821 22.3222 35.1344 22.9667C33.7437 23.6111 31.9045 23.9333 29.6166 23.9333C27.3736 23.9333 25.5343 23.6111 24.0988 22.9667C22.5736 22.3 21.396 21.2556 20.5661 19.8333C19.9156 18.6778 19.5343 17.4333 19.4221 16.1C19.31 14.7667 19.2539 13.3778 19.2539 11.9333V9.66667H19.2876C19.3324 8.66667 19.4334 7.7 19.5904 6.76667C19.7474 5.83333 20.0726 4.94445 20.5661 4.1C21.396 2.67778 22.5736 1.63333 24.0988 0.966666C25.5343 0.322222 27.3736 0 29.6166 0C31.9045 0 33.7437 0.322222 35.1344 0.966666C36.6821 1.61111 37.8709 2.65556 38.7008 4.1ZM34.5624 12C34.5624 10.9333 34.54 9.93333 34.4951 9C34.4503 8.04444 34.2708 7.3 33.9568 6.76667C33.912 6.67778 33.8222 6.56667 33.6877 6.43333C33.5755 6.27778 33.3624 6.13333 33.0484 6C32.7344 5.84445 32.3082 5.71111 31.7699 5.6C31.2316 5.48889 30.5138 5.43333 29.6166 5.43333C28.7418 5.43333 28.0241 5.48889 27.4633 5.6C26.925 5.71111 26.4988 5.84445 26.1848 6C25.8932 6.13333 25.6801 6.27778 25.5455 6.43333C25.4334 6.56667 25.3549 6.67778 25.31 6.76667C24.996 7.3 24.8166 8.02222 24.7717 8.93333C24.7268 9.84444 24.7044 10.8222 24.7044 11.8667V11.9333C24.7044 13 24.7268 14.0111 24.7717 14.9667C24.8166 15.9 24.996 16.6333 25.31 17.1667C25.3549 17.2333 25.4334 17.3444 25.5455 17.5C25.6801 17.6556 25.8932 17.8111 26.1848 17.9667C26.4988 18.1 26.925 18.2222 27.4633 18.3333C28.0241 18.4444 28.7418 18.5 29.6166 18.5C30.5138 18.5 31.2316 18.4444 31.7699 18.3333C32.3082 18.2222 32.7344 18.1 33.0484 17.9667C33.3624 17.8111 33.5755 17.6556 33.6877 17.5C33.8222 17.3444 33.912 17.2333 33.9568 17.1667C34.2708 16.6333 34.4503 15.9111 34.4951 15C34.54 14.0889 34.5624 13.1 34.5624 12.0333V12Z" fill="#231F20"/>
<path d="M62.4387 0.633333V24H57.6611L49.2162 11.0667C49.1937 11.0222 49.1713 11.0111 49.1489 11.0333C49.1264 11.0333 49.1152 11.0556 49.1152 11.1V24H43.732V0.633333H48.6106L56.9545 12.8667C56.977 12.9111 56.9994 12.9333 57.0218 12.9333C57.0443 12.9111 57.0555 12.8778 57.0555 12.8333V0.633333H62.4387Z" fill="#231F20"/>
<path d="M84.9125 0.633333V24H80.1349L71.69 11.0667C71.6676 11.0222 71.6452 11.0111 71.6227 11.0333C71.6003 11.0333 71.5891 11.0556 71.5891 11.1V24H66.2059V0.633333H71.0844L79.4284 12.8667C79.4508 12.9111 79.4733 12.9333 79.4957 12.9333C79.5181 12.9111 79.5293 12.8778 79.5293 12.8333V0.633333H84.9125Z" fill="#231F20"/>
<path d="M108.127 4.1C108.777 5.25556 109.158 6.5 109.271 7.83333C109.383 9.14444 109.439 10.5333 109.439 12V14.2667H109.405C109.36 15.2667 109.248 16.2333 109.069 17.1667C108.912 18.1 108.598 18.9889 108.127 19.8333C107.297 21.2778 106.108 22.3222 104.56 22.9667C103.17 23.6111 101.33 23.9333 99.0424 23.9333C96.7994 23.9333 94.9601 23.6111 93.5246 22.9667C91.9994 22.3 90.8218 21.2556 89.9919 19.8333C89.3414 18.6778 88.9601 17.4333 88.848 16.1C88.7358 14.7667 88.6797 13.3778 88.6797 11.9333V9.66667H88.7134C88.7582 8.66667 88.8592 7.7 89.0162 6.76667C89.1732 5.83333 89.4984 4.94445 89.9919 4.1C90.8218 2.67778 91.9994 1.63333 93.5246 0.966666C94.9601 0.322222 96.7994 0 99.0424 0C101.33 0 103.17 0.322222 104.56 0.966666C106.108 1.61111 107.297 2.65556 108.127 4.1ZM103.988 12C103.988 10.9333 103.966 9.93333 103.921 9C103.876 8.04444 103.697 7.3 103.383 6.76667C103.338 6.67778 103.248 6.56667 103.113 6.43333C103.001 6.27778 102.788 6.13333 102.474 6C102.16 5.84445 101.734 5.71111 101.196 5.6C100.657 5.48889 99.9396 5.43333 99.0424 5.43333C98.1676 5.43333 97.4499 5.48889 96.8891 5.6C96.3508 5.71111 95.9246 5.84445 95.6106 6C95.319 6.13333 95.1059 6.27778 94.9714 6.43333C94.8592 6.56667 94.7807 6.67778 94.7358 6.76667C94.4218 7.3 94.2424 8.02222 94.1975 8.93333C94.1527 9.84444 94.1302 10.8222 94.1302 11.8667V11.9333C94.1302 13 94.1527 14.0111 94.1975 14.9667C94.2424 15.9 94.4218 16.6333 94.7358 17.1667C94.7807 17.2333 94.8592 17.3444 94.9714 17.5C95.1059 17.6556 95.319 17.8111 95.6106 17.9667C95.9246 18.1 96.3508 18.2222 96.8891 18.3333C97.4499 18.4444 98.1676 18.5 99.0424 18.5C99.9396 18.5 100.657 18.4444 101.196 18.3333C101.734 18.2222 102.16 18.1 102.474 17.9667C102.788 17.8111 103.001 17.6556 103.113 17.5C103.248 17.3444 103.338 17.2333 103.383 17.1667C103.697 16.6333 103.876 15.9111 103.921 15C103.966 14.0889 103.988 13.1 103.988 12.0333V12Z" fill="#231F20"/>
<path d="M125.506 0.6C126.919 0.6 128.242 0.866667 129.476 1.4C130.732 1.93333 131.831 2.66667 132.773 3.6C133.715 4.51111 134.455 5.58889 134.993 6.83333C135.532 8.07778 135.801 9.4 135.801 10.8C135.801 11.9778 135.599 13.1222 135.195 14.2333C134.792 15.3222 134.208 16.3222 133.446 17.2333C132.302 18.6333 130.866 19.6556 129.139 20.3L130.552 24H124.765L123.689 21.1667C123.644 21.0333 123.554 20.9667 123.42 20.9667H118.81C118.631 20.9667 118.541 21.0667 118.541 21.2667V24H113.158V0.6H125.506ZM125.472 15.6333C126.145 15.6333 126.773 15.5111 127.356 15.2667C127.962 15 128.489 14.6556 128.937 14.2333C129.386 13.7889 129.734 13.2778 129.98 12.7C130.25 12.1 130.384 11.4667 130.384 10.8C130.384 10.1333 130.261 9.51111 130.014 8.93333C129.767 8.33333 129.42 7.81111 128.971 7.36667C128.522 6.92222 127.995 6.57778 127.39 6.33333C126.807 6.06667 126.178 5.93333 125.506 5.93333H118.81C118.631 5.93333 118.541 6.03333 118.541 6.23333V15.3667C118.541 15.5444 118.631 15.6333 118.81 15.6333H125.472Z" fill="#231F20"/>
<path d="M139.213 23.9667V18.6333H145V23.9667H139.213Z" fill="#231F20"/>
</svg>
