<svg width="145" height="50" viewBox="0 0 145 50" fill="none" xmlns="http://www.w3.org/2000/svg">
<path d="M16.067 0V15.716C16.067 16.7003 15.8753 17.63 15.4919 18.5049C15.1311 19.3798 14.5899 20.1673 13.8683 20.8672C13.1467 21.5672 12.3349 22.1031 11.4329 22.4749C10.5309 22.8249 9.57253 22.9999 8.55777 22.9999C8.12932 22.9999 7.62194 22.9561 7.03564 22.8686C6.47189 22.7811 5.85176 22.639 5.17525 22.4421C4.5213 22.2452 3.83352 21.9937 3.11192 21.6875C2.41286 21.3594 1.71381 20.9656 1.01476 20.5063L0 19.8173L1.89421 14.9614L3.34869 15.8145C4.76935 16.6457 5.89686 17.1816 6.73121 17.4222C7.56557 17.6409 8.17442 17.7503 8.55777 17.7503C9.09898 17.7503 9.59508 17.5534 10.0461 17.1597C10.452 16.766 10.6549 16.2847 10.6549 15.716V0H16.067Z" fill="#CF8151"/>
<path d="M43.5082 22.9999H37.7579L36.8784 20.6704C36.8333 20.5172 36.7319 20.4407 36.574 20.4407H26.3588C26.2235 20.4407 26.122 20.5172 26.0544 20.6704L25.2088 22.9999H19.4585L27.9824 0H34.9842L43.5082 22.9999ZM28.253 14.7645C28.2079 14.8739 28.2192 14.9723 28.2868 15.0598C28.3545 15.1473 28.4447 15.1911 28.5574 15.1911H34.4092C34.7024 15.1911 34.8038 15.0489 34.7136 14.7645L31.8047 6.89012C31.737 6.73701 31.6243 6.66045 31.4664 6.66045C31.3086 6.66045 31.2071 6.73701 31.162 6.89012L28.253 14.7645Z" fill="#CF8151"/>
<path d="M62.5816 0L53.99 22.9999H49.2545L40.6629 0H46.447L51.3517 13.2225C51.3968 13.3318 51.487 13.3865 51.6223 13.3865C51.7576 13.3865 51.8478 13.3318 51.8929 13.2225L56.7975 0H62.5816Z" fill="#CF8151"/>
<path d="M83.4113 22.9999H77.661L76.7816 20.6704C76.7365 20.5172 76.635 20.4407 76.4772 20.4407H66.262C66.1267 20.4407 66.0252 20.5172 65.9575 20.6704L65.1119 22.9999H59.3616L67.8856 0H74.8874L83.4113 22.9999ZM68.1562 14.7645C68.1111 14.8739 68.1223 14.9723 68.19 15.0598C68.2576 15.1473 68.3478 15.1911 68.4606 15.1911H74.3124C74.6055 15.1911 74.707 15.0489 74.6168 14.7645L71.7078 6.89012C71.6402 6.73701 71.5274 6.66045 71.3696 6.66045C71.2117 6.66045 71.1102 6.73701 71.0651 6.89012L68.1562 14.7645Z" fill="#CF8151"/>
<path d="M86.1816 22.9671V17.7174H91.9995V22.9671H86.1816Z" fill="#CF8151"/>
<path d="M15.9813 26.6333V42.5999C15.9813 43.5999 15.7907 44.5443 15.4094 45.4332C15.0505 46.3221 14.5122 47.1221 13.7944 47.8332C13.0766 48.5443 12.2692 49.0888 11.372 49.4665C10.4748 49.8221 9.5215 49.9999 8.51216 49.9999C8.08599 49.9999 7.58131 49.9554 6.99814 49.8665C6.43739 49.7776 5.82057 49.6332 5.14767 49.4332C4.4972 49.2332 3.81309 48.9777 3.09533 48.6665C2.4 48.3332 1.70467 47.9332 1.00935 47.4665L0 46.7666L1.88411 41.8332L3.33084 42.6999C4.74393 43.5443 5.86542 44.0888 6.69533 44.3332C7.52524 44.5555 8.13085 44.6666 8.51216 44.6666C9.05047 44.6666 9.54393 44.4666 9.99253 44.0666C10.3963 43.6666 10.5981 43.1777 10.5981 42.5999V26.6333H15.9813Z" fill="#F2F2F2"/>
<path d="M38.7006 30.1C39.351 31.2555 39.7323 32.5 39.8445 33.8333C39.9566 35.1444 40.0127 36.5333 40.0127 37.9999V40.2666H39.9791C39.9342 41.2666 39.822 42.2332 39.6426 43.1666C39.4856 44.0999 39.1716 44.9888 38.7006 45.8332C37.8706 47.2777 36.6819 48.3221 35.1342 48.9665C33.7435 49.611 31.9043 49.9332 29.6164 49.9332C27.3734 49.9332 25.5342 49.611 24.0987 48.9665C22.5734 48.2999 21.3959 47.2554 20.566 45.8332C19.9155 44.6777 19.5342 43.4332 19.422 42.0999C19.3099 40.7666 19.2538 39.3777 19.2538 37.9333V35.6666H19.2875C19.3323 34.6666 19.4332 33.7 19.5903 32.7666C19.7473 31.8333 20.0725 30.9444 20.566 30.1C21.3959 28.6778 22.5734 27.6333 24.0987 26.9667C25.5342 26.3222 27.3734 26 29.6164 26C31.9043 26 33.7435 26.3222 35.1342 26.9667C36.6819 27.6111 37.8706 28.6555 38.7006 30.1ZM34.5622 37.9999C34.5622 36.9333 34.5398 35.9333 34.4949 34.9999C34.4501 34.0444 34.2706 33.3 33.9566 32.7666C33.9118 32.6777 33.822 32.5666 33.6875 32.4333C33.5753 32.2777 33.3622 32.1333 33.0482 32C32.7342 31.8444 32.308 31.7111 31.7697 31.6C31.2314 31.4889 30.5136 31.4333 29.6164 31.4333C28.7417 31.4333 28.0239 31.4889 27.4632 31.6C26.9248 31.7111 26.4987 31.8444 26.1847 32C25.8931 32.1333 25.68 32.2777 25.5454 32.4333C25.4333 32.5666 25.3547 32.6777 25.3099 32.7666C24.9959 33.3 24.8164 34.0222 24.7716 34.9333C24.7267 35.8444 24.7043 36.8222 24.7043 37.8666V37.9333C24.7043 38.9999 24.7267 40.011 24.7716 40.9666C24.8164 41.8999 24.9959 42.6332 25.3099 43.1666C25.3547 43.2332 25.4333 43.3444 25.5454 43.4999C25.68 43.6555 25.8931 43.811 26.1847 43.9666C26.4987 44.0999 26.9248 44.2221 27.4632 44.3332C28.0239 44.4443 28.7417 44.4999 29.6164 44.4999C30.5136 44.4999 31.2314 44.4443 31.7697 44.3332C32.308 44.2221 32.7342 44.0999 33.0482 43.9666C33.3622 43.811 33.5753 43.6555 33.6875 43.4999C33.822 43.3444 33.9118 43.2332 33.9566 43.1666C34.2706 42.6332 34.4501 41.911 34.4949 40.9999C34.5398 40.0888 34.5622 39.0999 34.5622 38.0333V37.9999Z" fill="#F2F2F2"/>
<path d="M62.4383 26.6333V49.9999H57.6608L49.2159 37.0666C49.1935 37.0222 49.171 37.0111 49.1486 37.0333C49.1262 37.0333 49.115 37.0555 49.115 37.0999V49.9999H43.7318V26.6333H48.6103L56.9542 38.8666C56.9766 38.911 56.9991 38.9333 57.0215 38.9333C57.0439 38.911 57.0551 38.8777 57.0551 38.8333V26.6333H62.4383Z" fill="#F2F2F2"/>
<path d="M84.9121 26.6333V49.9999H80.1345L71.6896 37.0666C71.6672 37.0222 71.6448 37.0111 71.6223 37.0333C71.5999 37.0333 71.5887 37.0555 71.5887 37.0999V49.9999H66.2055V26.6333H71.084L79.4279 38.8666C79.4504 38.911 79.4728 38.9333 79.4952 38.9333C79.5177 38.911 79.5289 38.8777 79.5289 38.8333V26.6333H84.9121Z" fill="#F2F2F2"/>
<path d="M108.126 30.1C108.776 31.2555 109.158 32.5 109.27 33.8333C109.382 35.1444 109.438 36.5333 109.438 37.9999V40.2666H109.404C109.36 41.2666 109.247 42.2332 109.068 43.1666C108.911 44.0999 108.597 44.9888 108.126 45.8332C107.296 47.2777 106.107 48.3221 104.56 48.9665C103.169 49.611 101.33 49.9332 99.0419 49.9332C96.7989 49.9332 94.9596 49.611 93.5241 48.9665C91.9989 48.2999 90.8213 47.2554 89.9914 45.8332C89.3409 44.6777 88.9596 43.4332 88.8475 42.0999C88.7353 40.7666 88.6792 39.3777 88.6792 37.9333V35.6666H88.7129C88.7577 34.6666 88.8587 33.7 89.0157 32.7666C89.1727 31.8333 89.4979 30.9444 89.9914 30.1C90.8213 28.6778 91.9989 27.6333 93.5241 26.9667C94.9596 26.3222 96.7989 26 99.0419 26C101.33 26 103.169 26.3222 104.56 26.9667C106.107 27.6111 107.296 28.6555 108.126 30.1ZM103.988 37.9999C103.988 36.9333 103.965 35.9333 103.92 34.9999C103.876 34.0444 103.696 33.3 103.382 32.7666C103.337 32.6777 103.247 32.5666 103.113 32.4333C103.001 32.2777 102.788 32.1333 102.474 32C102.16 31.8444 101.733 31.7111 101.195 31.6C100.657 31.4889 99.9391 31.4333 99.0419 31.4333C98.1671 31.4333 97.4493 31.4889 96.8886 31.6C96.3503 31.7111 95.9241 31.8444 95.6101 32C95.3185 32.1333 95.1054 32.2777 94.9708 32.4333C94.8587 32.5666 94.7802 32.6777 94.7353 32.7666C94.4213 33.3 94.2419 34.0222 94.197 34.9333C94.1521 35.8444 94.1297 36.8222 94.1297 37.8666V37.9333C94.1297 38.9999 94.1521 40.011 94.197 40.9666C94.2419 41.8999 94.4213 42.6332 94.7353 43.1666C94.7802 43.2332 94.8587 43.3444 94.9708 43.4999C95.1054 43.6555 95.3185 43.811 95.6101 43.9666C95.9241 44.0999 96.3503 44.2221 96.8886 44.3332C97.4493 44.4443 98.1671 44.4999 99.0419 44.4999C99.9391 44.4999 100.657 44.4443 101.195 44.3332C101.733 44.2221 102.16 44.0999 102.474 43.9666C102.788 43.811 103.001 43.6555 103.113 43.4999C103.247 43.3444 103.337 43.2332 103.382 43.1666C103.696 42.6332 103.876 41.911 103.92 40.9999C103.965 40.0888 103.988 39.0999 103.988 38.0333V37.9999Z" fill="#F2F2F2"/>
<path d="M125.505 26.6C126.918 26.6 128.241 26.8667 129.475 27.4C130.731 27.9333 131.83 28.6667 132.772 29.6C133.714 30.5111 134.454 31.5889 134.993 32.8333C135.531 34.0777 135.8 35.3999 135.8 36.7999C135.8 37.9777 135.598 39.1221 135.195 40.2333C134.791 41.3221 134.208 42.3221 133.445 43.2332C132.301 44.6332 130.866 45.6554 129.139 46.2999L130.552 49.9999H124.765L123.688 47.1665C123.643 47.0332 123.553 46.9666 123.419 46.9666H118.81C118.63 46.9666 118.54 47.0666 118.54 47.2666V49.9999H113.157V26.6H125.505ZM125.471 41.6332C126.144 41.6332 126.772 41.511 127.355 41.2666C127.961 40.9999 128.488 40.6555 128.937 40.2333C129.385 39.7888 129.733 39.2777 129.98 38.6999C130.249 38.0999 130.383 37.4666 130.383 36.7999C130.383 36.1333 130.26 35.5111 130.013 34.9333C129.767 34.3333 129.419 33.8111 128.97 33.3666C128.522 32.9222 127.995 32.5777 127.389 32.3333C126.806 32.0666 126.178 31.9333 125.505 31.9333H118.81C118.63 31.9333 118.54 32.0333 118.54 32.2333V41.3666C118.54 41.5444 118.63 41.6332 118.81 41.6332H125.471Z" fill="#F2F2F2"/>
<path d="M139.212 49.9665V44.6332H144.999V49.9665H139.212Z" fill="#F2F2F2"/>
</svg>
